<svg width="800" height="600" xmlns="http://www.w3.org/2000/svg">

 <g>
  <title>Layer 1</title>
  <path id="svg_3" d="m330.97188,271.8377c-4.41759,1.63412 -8.44873,3.81267 -12.51208,5.75444c-1.38477,0.66122 -2.95794,1.71224 -4.24127,2.03358c-3.27032,0.81585 -8.38754,-0.61128 -12.55636,-0.76028c-10.41962,-0.36967 -17.16556,0.39705 -25.73103,1.68888c-4.0086,0.60323 -8.15889,1.16861 -11.67719,2.2003c-3.00544,0.88189 -6.45127,2.85266 -9.81418,4.51013c-5.31447,2.6199 -8.93421,5.08678 -13.07806,8.24548c-6.92628,5.27605 -11.28671,11.91802 -16.35482,19.21557c-2.21322,3.18528 -5.40062,7.93138 -5.55922,11.70056c-2.92976,4.44167 -7.38117,7.15339 -8.49784,13.65522c1.56109,3.8022 5.60672,0.42121 8.04457,-0.84484c2.01597,-1.05022 4.18492,-2.305 5.97143,-2.80836c9.28523,-2.61829 22.22481,1.12431 31.26529,-1.27492c3.2043,-0.84968 5.98029,-2.56514 9.16366,-3.29159c3.02315,-0.69182 5.3354,0.53316 7.49066,1.46418c1.14485,0.49611 2.3509,1.1678 3.39109,1.70177c6.73548,3.48166 13.46773,7.17272 22.51063,8.5628c7.25799,1.11384 13.56354,-1.01156 19.46332,-2.16003c1.49749,-0.29235 3.43215,-0.18604 4.56814,-1.46499c-4.70904,-1.06391 -8.617,-2.87843 -13.53455,-4.81537c-6.45933,-2.54178 -11.47672,-4.26127 -13.91778,-9.36416c2.89112,-0.75706 6.23953,-0.19571 9.249,0.33182c3.28642,0.57343 6.54789,1.11223 9.70147,1.63089c13.31557,2.19305 23.34391,5.87444 33.48013,10.65035c4.924,2.31708 9.46155,5.54585 13.63519,8.25595c8.54776,5.55712 15.84439,12.45762 22.72639,19.97504c3.11494,3.40354 5.89737,7.66561 9.27557,11.72795c1.47656,1.77586 2.96116,3.7571 4.53916,5.95015c1.50795,2.08352 3.80893,4.63738 4.12775,6.45995c0.35908,2.01265 -0.70929,4.21939 -1.2471,6.41888c-0.92989,3.82072 -1.61584,7.9193 -1.30426,11.84231c0.40738,5.0739 1.54096,10.01571 3.91762,13.85979c1.03133,-0.91733 1.4524,-2.53212 1.98377,-4.01079c2.60531,-3.33105 6.07127,-6.65808 6.15741,-12.20151c7.11629,3.67898 20.93907,3.37052 29.23805,3.27468c2.49501,-0.02899 5.03671,0.23517 7.10341,-0.73531c-4.35882,-2.52728 -7.55829,-5.72545 -11.34709,-8.99046c-5.73232,-4.93295 -10.47356,-9.08872 -18.9239,-11.72795c-2.73895,-0.85531 -5.87482,-1.31841 -7.37553,-2.9034c-1.15371,-1.2129 -1.50473,-3.89965 -2.09004,-6.48734c-1.57397,-6.99634 -3.62054,-14.41953 -5.44651,-20.30766c-5.47952,-17.69903 -13.84291,-33.42891 -24.97021,-45.64492c-5.63893,-6.19498 -12.37279,-11.23989 -19.63319,-16.84936c-1.24066,-1.9458 -3.56499,-4.57053 -4.04483,-7.53755c-0.49111,-3.05481 0.3945,-5.73592 2.28166,-7.78803c4.12856,-3.01373 10.61526,-3.34716 13.42023,-7.85809c-3.66724,-2.64084 -8.21767,-3.41481 -12.68276,-3.8465c-9.64592,-0.93344 -18.68318,-0.20859 -26.16578,2.56272z" stroke-dasharray="5,2,2,2" stroke-width="5" stroke="#000" fill="#AF84A3"/>
 </g>
</svg>